<svg id="Layer_1" data-name="Layer 1" xmlns="http://www.w3.org/2000/svg" viewBox="0 0 500 500"><defs><style>.cls-1{fill:#e8f4ec;}.cls-2{fill:#48b869;}.cls-3{fill:#40a357;}.cls-4{fill:#547dbf;}.cls-5{fill:#fff;}</style></defs><title>icon</title><circle class="cls-1" cx="250" cy="250" r="192.5"/><path class="cls-2" d="M250,63.61v6.22a6.05,6.05,0,0,0,5.87,6A174.18,174.18,0,0,1,424.18,250c0,96.11-78.08,174.18-174.18,174.18a174.19,174.19,0,0,1-95-320.19V82.49A192.43,192.43,0,0,0,57.54,253.71c2,105.35,89.41,190,194.78,188.73S442.5,355.49,442.5,250c0-104.23-82.83-189.11-186.26-192.4A6.06,6.06,0,0,0,250,63.61Z"/><polygon class="cls-2" points="120.87 78.51 193.57 66.09 159.2 131.35 120.87 78.51"/><polygon class="cls-3" points="193.28 66.23 158.92 131.5 144.35 111.42 193.28 66.23"/><path class="cls-2" d="M225.71,252.09a34.26,34.26,0,0,1-10.51,8.42,28.46,28.46,0,0,1-13.4,3.19A29.44,29.44,0,0,1,185.14,259a30.63,30.63,0,0,1-11-13.24,45.15,45.15,0,0,1-3.87-18.86,46,46,0,0,1,4.22-20,30.92,30.92,0,0,1,11.95-13.59,34.06,34.06,0,0,1,18.07-4.71q16.38,0,25.84,12.26t9.45,33.44v4.1q0,32.25-12.75,47.09T188.6,300.74h-2.74V288.82h3q17.38-.3,26.72-9.05T225.71,252.09Zm-21.63,0a21.67,21.67,0,0,0,13-4.33,25.48,25.48,0,0,0,8.69-10.7v-5.62q0-13.81-6-22.46t-15.18-8.66a18.06,18.06,0,0,0-14.88,7.1q-5.61,7.1-5.61,18.71,0,11.31,5.42,18.63A17.18,17.18,0,0,0,204.08,252.09Z"/><path class="cls-2" d="M265.63,245.26l5.62-55.11h56.62v13h-44.7l-3.34,30.13a35.72,35.72,0,0,1,18.44-4.78q15.11,0,24,10t8.88,27q0,17.07-9.22,26.9t-25.77,9.83q-14.65,0-23.91-8.12t-10.55-22.47H275q1.29,9.5,6.76,14.31t14.42,4.82q9.78,0,15.37-6.68t5.58-18.44q0-11.09-6-17.8T295,241.08q-9.18,0-14.42,4l-3.72,3Z"/><polygon class="cls-4" points="431.82 500.11 500.11 431.82 500.11 304.54 304.54 500.11 431.82 500.11"/><path class="cls-5" d="M411.38,486.09,429,468.46l4,4L410.46,495l-37.2-37.2,4.93-4.93Z"/><path class="cls-5" d="M404.49,431a4,4,0,0,1-1.24-2.64,3.72,3.72,0,0,1,1.29-2.87,3.8,3.8,0,0,1,2.89-1.31,4,4,0,0,1,2.66,1.23,3.61,3.61,0,0,1-.13,5.49,3.58,3.58,0,0,1-5.47.1Zm40.09,29.87-4.73,4.73L412.21,438l4.72-4.72Z"/><path class="cls-5" d="M425.78,411l6.7,6.69,5.16-5.16,3.65,3.65-5.16,5.17,17.17,17.16a5.39,5.39,0,0,0,3.18,1.8,4.08,4.08,0,0,0,3.18-1.51,16.11,16.11,0,0,0,1.95-2.56l3.81,3.81a20.05,20.05,0,0,1-3.12,4.14q-3.18,3.16-6.7,2.86c-2.35-.21-4.7-1.48-7.05-3.83L431.41,426.1l-5,5-3.65-3.66,5-5-6.69-6.7Z"/><path class="cls-5" d="M484.36,422.16a17.12,17.12,0,0,1-12.84,5.45q-7.23-.17-13.4-6.35l-.87-.87a23.52,23.52,0,0,1-5.78-8.91,17.37,17.37,0,0,1-.66-9.46,15.52,15.52,0,0,1,4.29-7.94q5.38-5.4,11.93-4.83t13.16,7.18l2,2-18.73,18.73a13.86,13.86,0,0,0,9,4.22,10.63,10.63,0,0,0,8.33-3.3,11.57,11.57,0,0,0,3.22-5.26,14.93,14.93,0,0,0,.33-5.75l5.14-.64Q491.3,415.21,484.36,422.16ZM459,398a9,9,0,0,0-2.72,6.89,14.35,14.35,0,0,0,3.44,8.24l13.85-13.85-.36-.36c-2.54-2.26-5.05-3.48-7.52-3.64A8.41,8.41,0,0,0,459,398Z"/></svg>